<svg xmlns="http://www.w3.org/2000/svg" viewBox="0 0 128 128" role="img" aria-label="Teams Keyword Alerts">
  <rect width="128" height="128" rx="24" fill="#242424"/>
  <path d="M28 44c0-10 8-18 18-18h36c10 0 18 8 18 18v22c0 10-8 18-18 18H61L42 99V84c-8-2-14-9-14-18V44Z" fill="#6264A7"/>
  <path d="M46 50h36v8H46v-8Zm0 16h24v8H46v-8Z" fill="#fff"/>
  <circle cx="92" cy="34" r="18" fill="#D83B01"/>
  <path d="M92 22c3 10 7 14 12 16-5 2-9 6-12 16-3-10-7-14-12-16 5-2 9-6 12-16Z" fill="#fff"/>
</svg>
